<svg width="72" height="72" viewBox="0 0 72 72" fill="none" xmlns="http://www.w3.org/2000/svg">
<path d="M0 36C0 16.1178 16.1178 0 36 0C55.8823 0 72 16.1178 72 36C72 55.8823 55.8823 72 36 72C16.1178 72 0 55.8823 0 36Z" fill="#FFF2F3"/>
<g clip-path="url(#clip0_2638_4823)">
<g clip-path="url(#clip1_2638_4823)">
<g clip-path="url(#clip2_2638_4823)">
<path d="M26.1139 47.5456H47.9113C47.978 47.5456 48.0427 47.5361 48.1048 47.5213C48.1098 47.5213 48.1139 47.5221 48.1188 47.5221C48.5841 47.5221 48.9622 47.1445 48.9622 46.6788V22.8433C48.9622 22.3778 48.5841 22 48.1188 22H47.913H27.4626H26.115C23.8703 22 22.0445 23.8263 22.0445 26.0704C22.0445 26.1005 22.0504 26.129 22.0533 26.1581C22.0504 28.2311 22.0247 47.2792 22.0504 49.7833C22.0488 49.8322 22.0428 49.88 22.0428 49.9295C22.0428 52.0873 23.7324 53.8538 25.8576 53.9873C25.9003 53.9939 25.9421 54.0001 25.9863 54.0001H48.1188C48.5841 54.0001 48.9621 53.6225 48.9621 53.1567V49.9823C48.9621 49.5169 48.584 49.139 48.1188 49.139C47.6535 49.139 47.2754 49.517 47.2754 49.9823V52.3135H26.1139C24.8323 52.3135 23.7862 51.296 23.7348 50.0272C23.736 50.0045 23.7401 49.9831 23.7397 49.9601C23.7389 49.923 23.7376 49.8654 23.7368 49.7888C23.8105 48.54 24.8469 47.5456 26.1139 47.5456ZM26.6889 26.0704C26.6889 25.6049 27.0667 25.227 27.5322 25.227C27.9978 25.227 28.3756 25.6049 28.3756 26.0704V43.2008C28.3756 43.6661 27.9978 44.0441 27.5322 44.0441C27.0667 44.0441 26.6889 43.666 26.6889 43.2008V26.0704Z" fill="#E74040"/>
</g>
</g>
</g>
<defs>
<clipPath id="clip0_2638_4823">
<rect width="32" height="32" fill="white" transform="translate(19.5 22)"/>
</clipPath>
<clipPath id="clip1_2638_4823">
<rect width="32" height="32" fill="white" transform="translate(19.5 22)"/>
</clipPath>
<clipPath id="clip2_2638_4823">
<rect width="26.9231" height="32.0001" fill="white" transform="translate(22.0391 22)"/>
</clipPath>
</defs>
</svg>
