<svg width="72" height="72" viewBox="0 0 72 72" fill="none" xmlns="http://www.w3.org/2000/svg">
<path d="M0 36C0 16.1178 16.1178 0 36 0C55.8823 0 72 16.1178 72 36C72 55.8823 55.8823 72 36 72C16.1178 72 0 55.8823 0 36Z" fill="#FFF2F3"/>
<g clip-path="url(#clip0_2638_4833)">
<g clip-path="url(#clip1_2638_4833)">
<g clip-path="url(#clip2_2638_4833)">
<g clip-path="url(#clip3_2638_4833)">
<path d="M24.3959 25.7754C24.395 25.7754 24.3941 25.7754 24.3932 25.7754C24.0905 25.7754 23.8059 25.8934 23.5909 26.1078C23.3736 26.3246 23.2539 26.6132 23.2539 26.9205V44.0912C23.2539 44.7209 23.7682 45.2344 24.4004 45.236C27.0658 45.2423 31.5314 45.7979 34.612 49.0217V31.0521C34.612 30.8386 34.5575 30.6381 34.4546 30.4722C31.9262 26.4003 27.0673 25.7816 24.3959 25.7754Z" fill="#E74040"/>
<path d="M47.7467 44.0913V26.9205C47.7467 26.6132 47.627 26.3246 47.4096 26.1078C47.1947 25.8934 46.9098 25.7754 46.6075 25.7754C46.6065 25.7754 46.6055 25.7754 46.6047 25.7754C43.9334 25.7817 39.0745 26.4004 36.546 30.4723C36.4431 30.6382 36.3887 30.8387 36.3887 31.0522V49.0217C39.4693 45.7979 43.9349 45.2423 46.6003 45.236C47.2324 45.2344 47.7467 44.7209 47.7467 44.0913Z" fill="#E74040"/>
<path d="M50.3554 29.7344H49.5252V44.0904C49.5252 45.698 48.2153 47.0089 46.6052 47.0129C44.3444 47.0183 40.6166 47.4604 37.9766 49.9591C42.5426 48.8411 47.3559 49.5679 50.0991 50.193C50.4416 50.271 50.7956 50.1904 51.07 49.9717C51.3434 49.7535 51.5003 49.4274 51.5003 49.0773V30.8793C51.5004 30.248 50.9867 29.7344 50.3554 29.7344Z" fill="#E74040"/>
<path d="M21.4752 44.0904V29.7344H20.6449C20.0137 29.7344 19.5 30.248 19.5 30.8793V49.077C19.5 49.4272 19.6569 49.7532 19.9303 49.9714C20.2045 50.19 20.5582 50.2709 20.9012 50.1927C23.6444 49.5674 28.4579 48.8408 33.0237 49.9588C30.3837 47.4602 26.656 47.0182 24.3952 47.0128C22.7851 47.0089 21.4752 45.698 21.4752 44.0904Z" fill="#E74040"/>
</g>
</g>
</g>
</g>
<defs>
<clipPath id="clip0_2638_4833">
<rect width="32" height="32" fill="white" transform="translate(19.5 22)"/>
</clipPath>
<clipPath id="clip1_2638_4833">
<rect width="32" height="24.4476" fill="white" transform="translate(19.5 25.7754)"/>
</clipPath>
<clipPath id="clip2_2638_4833">
<rect width="32" height="24.4476" fill="white" transform="translate(19.5 25.7754)"/>
</clipPath>
<clipPath id="clip3_2638_4833">
<rect width="32" height="24.4476" fill="white" transform="translate(19.5 25.7754)"/>
</clipPath>
</defs>
</svg>
